<svg width="60" height="60" viewBox="0 0 60 60" fill="none" xmlns="http://www.w3.org/2000/svg">
<path d="M39.7588 8.9082C39.9553 7.92566 40.0863 6.94313 40.2173 5.8951C38.1212 4.97807 35.8941 4.38855 33.6016 4.06104C35.3046 5.76409 36.8767 7.46715 38.2522 9.23571C38.7107 9.0392 39.2348 8.9082 39.7588 8.9082Z" fill="url(#paint0_linear)"/>
<path d="M8.90883 22.7949C9.43284 22.7949 9.95686 22.9259 10.4154 23.1224C14.6075 18.7337 19.4547 15.5896 24.8914 13.6901C28.6905 12.38 32.4896 11.7905 36.0922 11.725C36.2232 11.201 36.5507 10.677 36.8783 10.284C35.1097 8.05688 33.0791 5.89531 30.8521 3.86475C30.59 3.86475 30.2625 3.86475 30.0005 3.86475C18.9307 3.86475 9.49835 10.7425 5.69922 20.4368C6.15773 21.2883 6.68175 22.2709 7.27127 23.2534C7.72979 22.9914 8.31931 22.7949 8.90883 22.7949Z" fill="url(#paint1_linear)"/>
<path d="M43.6887 41.8558C43.8852 40.2838 45.0643 39.0392 46.6363 38.6462C46.6363 38.0567 46.6363 37.4672 46.6363 36.8122C46.4398 29.4104 44.5403 22.5982 41.0686 16.3755C40.6756 16.5065 40.2826 16.572 39.8241 16.572C37.2695 25.4803 33.3394 32.751 29.3438 38.3842C29.9333 38.9737 30.3263 39.8253 30.3918 40.6768C34.4529 41.7248 38.9071 42.1178 43.6887 41.8558Z" fill="url(#paint2_linear)"/>
<path d="M8.90738 28.5589C9.95648 28.5589 10.8069 27.7084 10.8069 26.6593C10.8069 25.6102 9.95648 24.7598 8.90738 24.7598C7.85828 24.7598 7.00781 25.6102 7.00781 26.6593C7.00781 27.7084 7.85828 28.5589 8.90738 28.5589Z" fill="url(#paint3_linear)"/>
<path d="M43.56 12.1833C45.9836 12.5108 48.2762 13.0348 50.3067 13.6243C48.0142 10.7422 45.1321 8.38414 41.7914 6.74658C41.6604 7.59811 41.5294 8.51514 41.3984 9.36667C42.5775 9.82518 43.3635 10.8732 43.56 12.1833Z" fill="url(#paint4_linear)"/>
<path d="M26.5285 39.105C25.4804 39.105 24.6289 39.9565 24.6289 41.0045C24.6289 42.0526 25.4804 42.9041 26.5285 42.9041C27.5765 42.9041 28.428 42.0526 28.428 41.0045C28.428 39.9565 27.5765 39.105 26.5285 39.105Z" fill="url(#paint5_linear)"/>
<path d="M36.0279 13.4937C32.6218 13.5592 29.0191 14.1487 25.482 15.3277C20.4384 17.0963 15.8532 20.0439 11.8576 24.105C12.4471 24.76 12.7746 25.6771 12.7746 26.5941C12.7746 27.6421 12.3816 28.5592 11.7266 29.2142C14.5432 32.3583 18.0803 35.4369 22.6654 37.7295C22.9929 37.926 23.386 38.057 23.7135 38.2535C24.434 37.533 25.4165 37.0089 26.5301 37.0089C27.0541 37.0089 27.5126 37.0744 27.9056 37.2709C31.8357 31.7688 35.6349 24.76 38.0584 16.1137C37.0104 15.7207 36.2244 14.6727 36.0279 13.4937Z" fill="url(#paint6_linear)"/>
<path d="M39.7589 14.6727C40.808 14.6727 41.6585 13.8222 41.6585 12.7731C41.6585 11.724 40.808 10.8735 39.7589 10.8735C38.7098 10.8735 37.8594 11.724 37.8594 12.7731C37.8594 13.8222 38.7098 14.6727 39.7589 14.6727Z" fill="url(#paint7_linear)"/>
<path d="M43.4933 13.9521C43.2968 14.6072 42.9038 15.1312 42.4453 15.5897C46.7685 23.319 48.144 30.8517 48.3405 36.8779C48.3405 37.4674 48.3405 38.1225 48.3405 38.712C49.5851 38.974 50.6331 39.891 51.0916 41.0701C52.0741 40.8735 53.0567 40.677 54.0392 40.4805C55.4147 37.2709 56.2008 33.7338 56.2008 30.0657C56.2008 24.891 54.6942 20.1094 52.0741 16.0482C49.585 15.1967 46.703 14.4107 43.4933 13.9521Z" fill="url(#paint8_linear)"/>
<path d="M5.10782 26.6596C5.10782 25.8081 5.36983 25.0221 5.89385 24.367C5.56634 23.7775 5.23883 23.2535 4.91132 22.7295C4.25629 25.0221 3.86328 27.5111 3.86328 30.0657C3.86328 30.6553 3.86328 31.1793 3.92878 31.7688C4.5183 30.7863 5.17332 29.8037 5.76284 28.8867C5.30433 28.2317 5.10782 27.4456 5.10782 26.6596Z" fill="url(#paint9_linear)"/>
<path d="M47.6863 46.2446C47.4898 47.5546 47.2278 48.7337 47.0312 49.7817C49.4548 47.6856 51.4854 45.1965 53.0574 42.3145C52.4679 42.4455 51.8784 42.5765 51.3544 42.642C51.1579 44.607 49.6513 46.1136 47.6863 46.2446Z" fill="url(#paint10_linear)"/>
<path d="M30 0C13.4279 0 0 13.4279 0 30C0 46.572 13.4279 60 30 60C46.572 60 60 46.572 60 30C60 13.4279 46.572 0 30 0ZM56.5939 40.7424C54.4323 46.048 50.6987 50.6332 45.9825 53.7773C45.5895 54.0393 45.262 54.2358 44.869 54.4978C44.869 54.4978 44.869 54.4978 44.8035 54.4978C44.4105 54.6943 44.083 54.9563 43.69 55.1528C39.6288 57.3799 34.9782 58.6245 30.0655 58.6245C16.5065 58.6245 5.17467 49.2576 2.16157 36.6157C1.63755 34.5196 1.31004 32.2926 1.31004 30C1.31004 26.3319 2.03057 22.7948 3.27511 19.5851C3.40611 19.1921 3.53712 18.8646 3.73362 18.5371C3.73362 18.4716 3.73362 18.4716 3.79913 18.4716C3.93013 18.1441 4.12664 17.8166 4.25764 17.4891C8.64629 8.44978 17.5546 2.16157 28.0349 1.44105C28.2969 1.44105 28.6245 1.37555 28.8865 1.37555C29.2795 1.37555 29.607 1.37555 30 1.37555C30.1965 1.37555 30.393 1.37555 30.655 1.37555C34.1266 1.44105 37.4672 2.16157 40.5458 3.34061C46.31 5.63319 51.1572 9.69432 54.3668 14.869C54.6288 15.262 54.8253 15.655 55.0873 16.048C55.2838 16.441 55.5459 16.8341 55.7424 17.2926C57.6419 21.0917 58.69 25.4148 58.69 30C58.69 33.7336 57.9694 37.2707 56.7249 40.4803C56.6594 40.6114 56.5939 40.6769 56.5939 40.7424Z" fill="url(#paint11_linear)"/>
<path d="M23.3189 43.1659C22.9259 42.5764 22.6639 41.7904 22.6639 41.0044C22.6639 40.6114 22.7294 40.2183 22.8604 39.8908C22.5329 39.7598 22.2054 39.5633 21.8779 39.4323C16.9652 36.9432 13.1661 33.6681 10.284 30.3275C9.891 30.4585 9.43248 30.524 8.97397 30.524C8.25345 30.524 7.66393 30.3275 7.07441 30C6.09187 31.441 5.17484 32.9476 4.25781 34.5197C5.43685 41.3974 9.36698 47.3581 14.8037 51.2227C16.5067 49.9127 19.7163 47.2271 23.3189 43.1659Z" fill="url(#paint12_linear)"/>
<path d="M43.8195 43.5589C42.837 43.6244 41.8544 43.6899 40.9374 43.6899C37.1383 43.6899 33.5357 43.2314 30.1296 42.3799C29.54 43.8209 28.1645 44.8035 26.5269 44.8035C25.8064 44.8035 25.1514 44.607 24.6274 44.2794C21.2213 48.0786 18.2082 50.7642 16.3086 52.2052C20.3042 54.6943 25.0204 56.0698 29.9986 56.0698C35.5007 56.0698 40.6099 54.3668 44.802 51.4192C45.1951 49.8471 45.6536 48.0131 45.9811 45.8515C44.9331 45.524 44.147 44.6725 43.8195 43.5589Z" fill="url(#paint13_linear)"/>
<path d="M47.4894 44.345C48.5385 44.345 49.389 43.4946 49.389 42.4455C49.389 41.3964 48.5385 40.5459 47.4894 40.5459C46.4403 40.5459 45.5898 41.3964 45.5898 42.4455C45.5898 43.4946 46.4403 44.345 47.4894 44.345Z" fill="url(#paint14_linear)"/>
<defs>
<linearGradient id="paint0_linear" x1="33.6016" y1="4.06104" x2="40.2173" y2="4.06104" gradientUnits="userSpaceOnUse">
<stop stop-color="#147D6C"/>
<stop offset="1" stop-color="#1EFFFF"/>
</linearGradient>
<linearGradient id="paint1_linear" x1="5.69922" y1="3.86475" x2="36.8783" y2="3.86475" gradientUnits="userSpaceOnUse">
<stop stop-color="#147D6C"/>
<stop offset="1" stop-color="#1EFFFF"/>
</linearGradient>
<linearGradient id="paint2_linear" x1="29.3438" y1="16.3755" x2="46.6363" y2="16.3755" gradientUnits="userSpaceOnUse">
<stop stop-color="#147D6C"/>
<stop offset="1" stop-color="#1EFFFF"/>
</linearGradient>
<linearGradient id="paint3_linear" x1="7.00781" y1="24.7598" x2="10.8069" y2="24.7598" gradientUnits="userSpaceOnUse">
<stop stop-color="#147D6C"/>
<stop offset="1" stop-color="#1EFFFF"/>
</linearGradient>
<linearGradient id="paint4_linear" x1="41.3984" y1="6.74658" x2="50.3067" y2="6.74658" gradientUnits="userSpaceOnUse">
<stop stop-color="#147D6C"/>
<stop offset="1" stop-color="#1EFFFF"/>
</linearGradient>
<linearGradient id="paint5_linear" x1="24.6289" y1="39.105" x2="28.428" y2="39.105" gradientUnits="userSpaceOnUse">
<stop stop-color="#147D6C"/>
<stop offset="1" stop-color="#1EFFFF"/>
</linearGradient>
<linearGradient id="paint6_linear" x1="11.7266" y1="13.4937" x2="38.0584" y2="13.4937" gradientUnits="userSpaceOnUse">
<stop stop-color="#147D6C"/>
<stop offset="1" stop-color="#1EFFFF"/>
</linearGradient>
<linearGradient id="paint7_linear" x1="37.8594" y1="10.8735" x2="41.6585" y2="10.8735" gradientUnits="userSpaceOnUse">
<stop stop-color="#147D6C"/>
<stop offset="1" stop-color="#1EFFFF"/>
</linearGradient>
<linearGradient id="paint8_linear" x1="42.4453" y1="13.9521" x2="56.2008" y2="13.9521" gradientUnits="userSpaceOnUse">
<stop stop-color="#147D6C"/>
<stop offset="1" stop-color="#1EFFFF"/>
</linearGradient>
<linearGradient id="paint9_linear" x1="3.86328" y1="22.7295" x2="5.89385" y2="22.7295" gradientUnits="userSpaceOnUse">
<stop stop-color="#147D6C"/>
<stop offset="1" stop-color="#1EFFFF"/>
</linearGradient>
<linearGradient id="paint10_linear" x1="47.0312" y1="42.3145" x2="53.0574" y2="42.3145" gradientUnits="userSpaceOnUse">
<stop stop-color="#147D6C"/>
<stop offset="1" stop-color="#1EFFFF"/>
</linearGradient>
<linearGradient id="paint11_linear" x1="0" y1="0" x2="60" y2="0" gradientUnits="userSpaceOnUse">
<stop stop-color="#147D6C"/>
<stop offset="1" stop-color="#1EFFFF"/>
</linearGradient>
<linearGradient id="paint12_linear" x1="4.25781" y1="30" x2="23.3189" y2="30" gradientUnits="userSpaceOnUse">
<stop stop-color="#147D6C"/>
<stop offset="1" stop-color="#1EFFFF"/>
</linearGradient>
<linearGradient id="paint13_linear" x1="16.3086" y1="42.3799" x2="45.9811" y2="42.3799" gradientUnits="userSpaceOnUse">
<stop stop-color="#147D6C"/>
<stop offset="1" stop-color="#1EFFFF"/>
</linearGradient>
<linearGradient id="paint14_linear" x1="45.5898" y1="40.5459" x2="49.389" y2="40.5459" gradientUnits="userSpaceOnUse">
<stop stop-color="#147D6C"/>
<stop offset="1" stop-color="#1EFFFF"/>
</linearGradient>
</defs>
</svg>
