<svg width="100" height="33" viewBox="0 0 100 33" fill="none" xmlns="http://www.w3.org/2000/svg">
<path d="M1.91016 18.2073V0.205731H6.38482C9.21363 0.205731 10.6023 1.77444 10.6023 4.65468V13.7583C10.6023 16.6386 9.21363 18.2073 6.38482 18.2073H1.91016ZM6.33339 2.77738H4.73897V15.6356H6.33339C7.23346 15.6356 7.77351 15.1727 7.77351 13.8869V4.5261C7.77351 3.24027 7.23346 2.77738 6.33339 2.77738ZM12.4025 18.2073V0.205731H15.2313V18.2073H12.4025ZM21.5318 10.7495V8.17783H25.4922V13.8869C25.4922 16.7671 24.052 18.413 21.2747 18.413C18.4973 18.413 17.0572 16.7671 17.0572 13.8869V4.5261C17.0572 1.64585 18.4973 0 21.2747 0C24.052 0 25.4922 1.64585 25.4922 4.5261V6.27482H22.8176V4.34608C22.8176 3.06026 22.2519 2.57165 21.3518 2.57165C20.4517 2.57165 19.886 3.06026 19.886 4.34608V14.0669C19.886 15.3527 20.4517 15.8156 21.3518 15.8156C22.2519 15.8156 22.8176 15.3527 22.8176 14.0669V10.7495H21.5318ZM27.318 18.2073V0.205731H30.1468V18.2073H27.318ZM31.3812 2.77738V0.205731H40.1248V2.77738H37.1674V18.2073H34.3386V2.77738H31.3812ZM46.6568 0.205731L49.537 18.2073H46.6825L46.1939 14.9413H42.7222L42.2336 18.2073H39.6362L42.5164 0.205731H46.6568ZM44.4195 3.39457L43.0822 12.4982H45.8082L44.4709 3.39457H44.4195ZM50.8486 18.2073V0.205731H53.6774V15.6356H58.3321V18.2073H50.8486ZM58.4092 10.4923V7.92067H63.5525V10.4923H58.4092ZM72.6819 18.2073L71.6789 8.61502H71.6275L70.6245 18.2073H66.7414L64.7355 0.205731H67.4871L68.9787 14.4012H69.0301L70.3674 0.205731H73.0933L74.482 14.5041H74.5334L75.9736 0.205731H78.4423L76.4365 18.2073H72.6819ZM82.6856 2.77738V7.79209H86.5687V10.3637H82.6856V15.6356H87.5717V18.2073H79.8568V0.205731H87.5717V2.77738H82.6856ZM93.5893 0.205731C96.521 0.205731 97.7811 1.5687 97.7811 4.34608V4.98899C97.7811 6.84058 97.2154 7.99782 95.9553 8.5893V8.64073C97.4725 9.23221 98.064 10.5695 98.064 12.4725V13.9383C98.064 16.7157 96.5982 18.2073 93.7694 18.2073H89.3204V0.205731H93.5893ZM93.4093 10.1066H92.1492V15.6356H93.7694C94.7209 15.6356 95.2352 15.1984 95.2352 13.8612V12.2925C95.2352 10.6209 94.6951 10.1066 93.4093 10.1066ZM93.5122 2.77738H92.1492V7.53492H93.255C94.3094 7.53492 94.9523 7.07203 94.9523 5.63191V4.62896C94.9523 3.34314 94.5151 2.77738 93.5122 2.77738Z" fill="white"/>
<path d="M0.0440194 24.5605C0.0440194 22.9171 0.851042 21.978 2.42107 21.978C3.99109 21.978 4.79812 22.9171 4.79812 24.5605V24.8833H3.27211V24.4578C3.27211 23.7241 2.97865 23.4453 2.46509 23.4453C1.95153 23.4453 1.65806 23.7241 1.65806 24.4578C1.65806 25.2061 1.98087 25.7637 3.03734 26.6881C4.38727 27.8766 4.81279 28.7277 4.81279 29.9015C4.81279 31.5449 3.99109 32.484 2.40639 32.484C0.821696 32.484 0 31.5449 0 29.9015V29.2706H1.52601V30.0042C1.52601 30.7379 1.84882 31.002 2.36238 31.002C2.87594 31.002 3.19874 30.7379 3.19874 30.0042C3.19874 29.2559 2.87594 28.6983 1.81947 27.7739C0.46954 26.5854 0.0440194 25.7344 0.0440194 24.5605ZM13.8426 24.4578V30.0042C13.8426 30.7379 14.1654 31.0167 14.679 31.0167C15.1925 31.0167 15.5153 30.7379 15.5153 30.0042V24.4578C15.5153 23.7241 15.1925 23.4453 14.679 23.4453C14.1654 23.4453 13.8426 23.7241 13.8426 24.4578ZM12.2285 29.9015V24.5605C12.2285 22.9171 13.0943 21.978 14.679 21.978C16.2637 21.978 17.1294 22.9171 17.1294 24.5605V29.9015C17.1294 31.5449 16.2637 32.484 14.679 32.484C13.0943 32.484 12.2285 31.5449 12.2285 29.9015ZM24.7946 32.3666V22.0954H26.4086V30.8993H29.0645V32.3666H24.7946ZM36.3188 22.0954H37.9329V30.0189C37.9329 30.7526 38.2557 31.0167 38.7692 31.0167C39.2828 31.0167 39.6056 30.7526 39.6056 30.0189V22.0954H41.1316V29.9162C41.1316 31.5596 40.3099 32.4987 38.7252 32.4987C37.1405 32.4987 36.3188 31.5596 36.3188 29.9162V22.0954ZM48.386 23.5627V22.0954H53.3748V23.5627H51.6874V32.3666H50.0734V23.5627H48.386ZM60.7025 32.3666V22.0954H62.3166V32.3666H60.7025ZM71.5958 24.4578V30.0042C71.5958 30.7379 71.9186 31.0167 72.4322 31.0167C72.9458 31.0167 73.2686 30.7379 73.2686 30.0042V24.4578C73.2686 23.7241 72.9458 23.4453 72.4322 23.4453C71.9186 23.4453 71.5958 23.7241 71.5958 24.4578ZM69.9818 29.9015V24.5605C69.9818 22.9171 70.8475 21.978 72.4322 21.978C74.0169 21.978 74.8826 22.9171 74.8826 24.5605V29.9015C74.8826 31.5449 74.0169 32.484 72.4322 32.484C70.8475 32.484 69.9818 31.5449 69.9818 29.9015ZM85.996 32.3666L84.0151 24.9273H83.9858V32.3666H82.5331V22.0954H84.558L86.1868 28.2435H86.2161V22.0954H87.6541V32.3666H85.996ZM95.2312 24.5605C95.2312 22.9171 96.0382 21.978 97.6083 21.978C99.1783 21.978 99.9853 22.9171 99.9853 24.5605V24.8833H98.4593V24.4578C98.4593 23.7241 98.1659 23.4453 97.6523 23.4453C97.1387 23.4453 96.8453 23.7241 96.8453 24.4578C96.8453 25.2061 97.1681 25.7637 98.2245 26.6881C99.5745 27.8766 100 28.7277 100 29.9015C100 31.5449 99.1783 32.484 97.5936 32.484C96.0089 32.484 95.1872 31.5449 95.1872 29.9015V29.2706H96.7132V30.0042C96.7132 30.7379 97.036 31.002 97.5496 31.002C98.0631 31.002 98.386 30.7379 98.386 30.0042C98.386 29.2559 98.0631 28.6983 97.0067 27.7739C95.6567 26.5854 95.2312 25.7344 95.2312 24.5605Z" fill="white"/>
</svg>
