<svg width="15" height="24" viewBox="0 0 15 24" fill="none" xmlns="http://www.w3.org/2000/svg">
<path d="M9.72811 0.695116C9.24595 0.73766 8.74251 0.81743 8.10613 0.953925L7.70373 1.04078L7.7126 1.11169C7.71614 1.15069 7.77641 1.33327 7.84555 1.5194C7.91291 1.70376 8.11499 2.24619 8.29048 2.72127L8.61133 3.58632L8.57234 3.62C8.54929 3.6395 8.53688 3.65369 8.54575 3.65546C8.55284 3.65546 8.77619 3.59519 9.04209 3.52074C9.94083 3.27256 10.4974 3.1343 11.0186 3.03503C11.6621 2.91094 12.3694 2.82585 12.3694 2.87194C12.3694 2.90208 12.2152 3.02794 11.7667 3.36297C11.0541 3.89477 10.6871 4.20675 10.4372 4.49393C10.3645 4.57724 10.2954 4.64637 10.283 4.64637C10.2599 4.64815 9.79547 4.50988 9.44448 4.39643C8.81874 4.19435 8.35253 3.96036 8.07067 3.70332C8.01218 3.65014 7.94659 3.60228 7.92354 3.59519C7.89873 3.58632 7.88454 3.57037 7.88809 3.55264C7.89518 3.51187 8.03699 3.50833 8.26389 3.54023C8.43052 3.56505 8.55815 3.57392 8.55815 3.56151C8.55815 3.55796 8.35962 3.01907 8.11499 2.36319C7.84555 1.63817 7.67182 1.14714 7.67182 1.10992C7.67182 1.05851 7.66651 1.04965 7.64169 1.05674C7.62396 1.06206 7.55483 1.07801 7.48747 1.09396L7.36338 1.12233L7.32084 1.06737C7.26411 0.996468 7.13471 0.93088 6.98049 0.898972C6.58873 0.81743 5.73431 0.819202 4.87102 0.90429C4.57322 0.934425 4.22046 0.964561 4.08573 0.971651L3.84288 0.98406V1.08687C3.84288 1.26237 3.79325 1.5584 3.69398 1.9732C3.59471 2.38269 3.55216 2.61313 3.53266 2.83649L3.52026 2.96589L3.57521 2.98717C3.64257 3.01198 3.64434 3.03503 3.58407 3.22116C3.55925 3.29915 3.53444 3.39842 3.52912 3.44274L3.52026 3.52251L3.72943 3.61823C4.05383 3.76536 4.59626 3.97985 5.40282 4.28121C6.49301 4.69069 7.02658 4.92291 7.50342 5.19767C7.81364 5.37494 8.29226 5.70997 8.29226 5.74897C8.29226 5.77201 8.08308 5.95637 7.89518 6.09641C7.32438 6.52362 6.71282 6.82143 5.26101 7.37804C4.68489 7.59963 4.13714 7.81944 3.94038 7.90984C3.85529 7.94884 3.78438 7.98075 3.78084 7.98075C3.7702 7.98075 3.57166 7.46313 3.4653 7.16532C3.41212 7.01465 3.2189 6.45094 3.03809 5.9156C2.64811 4.76337 2.65165 4.77223 2.62684 4.77223C2.6162 4.77223 2.53111 4.81123 2.43893 4.85732C2.16594 4.99736 1.87523 5.20122 1.47461 5.53625L1.3062 5.67806L1.19275 5.63197C1.03321 5.56816 0.909129 5.5717 0.777952 5.64084C0.666274 5.70111 0.270971 6.03259 0.210701 6.11768C0.0298894 6.37117 -0.030381 6.77179 0.0139355 7.44009C0.0245714 7.62444 0.0405254 7.89566 0.047616 8.04102C0.0600246 8.29628 0.0617973 8.30692 0.107886 8.34592C0.132704 8.36719 0.200065 8.40264 0.25679 8.42214C0.485463 8.50545 0.469509 8.49127 0.64323 8.79263C1.12185 9.624 1.32748 9.89167 1.78482 10.2763C2.19253 10.6167 2.26344 10.7036 2.74738 11.4374C3.27563 12.2387 3.36426 12.4266 3.47948 12.9956C3.57875 13.4866 3.61243 13.8677 3.62484 14.708C3.63725 15.5128 3.61421 16.0552 3.54862 16.5516C3.49189 16.9752 3.47594 17.5247 3.5043 18.1221C3.51494 18.3597 3.53621 18.9092 3.55039 19.3435C3.56457 19.7778 3.58584 20.2316 3.59471 20.3539C3.64434 20.9336 3.74893 21.4033 3.90847 21.7525C3.97406 21.8997 4.12119 22.1443 4.14246 22.1443C4.14955 22.1443 4.23818 22.1567 4.341 22.1709C5.41877 22.3216 6.11543 22.3092 6.47351 22.1337C6.79436 21.9777 7.11521 21.4335 7.39352 20.5755C7.52292 20.1766 7.62219 19.815 7.98027 18.4306C8.23908 17.4326 8.22489 17.4822 8.26744 17.4822C8.30289 17.4822 8.30821 17.4946 8.31885 17.5921C8.43584 18.6805 8.79924 19.948 9.35231 21.2048C9.50653 21.5522 10.0046 22.6123 10.0791 22.747C10.2191 23.004 10.3415 23.16 10.4496 23.2274C10.6481 23.3515 11.109 23.3852 12.1744 23.3515C13.1228 23.3213 13.3692 23.2948 13.4861 23.2097C13.5978 23.1299 13.7077 22.9579 13.9116 22.5431C14.1686 22.022 14.3193 21.6621 14.4788 21.1871C14.7341 20.4284 14.883 19.7228 14.9699 18.8737C14.9929 18.6504 15 18.4128 15 17.952C15 17.2783 14.9965 17.234 14.8865 16.5498C14.782 15.9063 14.7696 15.7592 14.7979 15.4259C14.8263 15.0785 14.8174 14.9615 14.7252 14.5431C14.626 14.0822 14.6224 13.9777 14.6898 13.5203C14.7359 13.2065 14.7678 12.8875 14.8245 12.1908C14.8387 12.0277 14.8227 12.0898 14.7625 12.4337C14.6277 13.2207 14.3849 14.1195 14.1084 14.8551C13.947 15.2859 13.667 15.8762 13.433 16.2768C12.9083 17.1755 12.5342 17.5602 12.006 17.741C11.8748 17.7871 11.8429 17.7906 11.5717 17.7906C11.3005 17.7924 11.2686 17.7889 11.1374 17.7446C10.9193 17.6701 10.7226 17.5389 10.5063 17.3244C10.4035 17.2216 10.2794 17.0834 10.2315 17.0178C9.91778 16.5906 9.53844 15.8319 9.3399 15.2398C9.14491 14.6513 9.07223 14.1602 9.07223 13.4281C9.07223 12.8751 9.10413 12.4904 9.21404 11.6679C9.2424 11.4587 9.29026 11.1077 9.31863 10.8879C9.3913 10.3579 9.46576 9.47687 9.43739 9.50523C9.41967 9.52473 9.31863 9.86331 9.24063 10.17C8.97118 11.2176 8.79392 12.5365 8.71769 14.0521C8.68933 14.6105 8.66451 15.5234 8.66451 15.9914V16.4044L8.6007 16.5267C8.52625 16.6686 8.41811 16.7731 8.30998 16.8086C8.22135 16.837 8.23199 16.8458 8.05295 16.5764C7.92177 16.3761 7.80832 16.1563 7.56015 15.6085C7.45911 15.3869 7.28184 15.0288 7.16839 14.8143C6.94326 14.3925 5.72899 11.9586 5.42587 11.3222C5.00574 10.443 4.6069 9.48751 4.64767 9.45383C4.68489 9.42192 4.86393 9.35988 5.83535 9.03371C6.36892 8.85467 6.86349 8.67918 6.9344 8.64727C7.00353 8.61359 7.09217 8.57813 7.13116 8.56572C7.34211 8.50014 7.67182 8.35301 8.20362 8.08888C8.52979 7.92579 8.87369 7.76448 8.96587 7.73257C9.10591 7.68294 9.14845 7.6599 9.21581 7.59076L9.29913 7.50567L9.30976 7.58013C9.31685 7.61912 9.35231 7.77689 9.3913 7.93111C9.4303 8.08356 9.46221 8.23069 9.46398 8.25905C9.46398 8.28564 9.47107 8.32464 9.47817 8.34237C9.49057 8.37428 9.49766 8.37073 9.54021 8.30692C9.56503 8.26969 9.60402 8.18638 9.62352 8.12256C9.66607 7.98252 9.72279 7.88148 9.9231 7.5819C10.1925 7.17951 10.4514 6.88524 10.7119 6.68493L10.8201 6.60162L10.9335 6.6548C11.1657 6.76116 11.4157 6.85334 12.0024 7.05187C12.8267 7.33018 13.027 7.41704 13.8407 7.85312C14.3193 8.11015 14.7093 8.30692 14.7181 8.29628C14.7412 8.27501 14.5267 7.6918 14.337 7.25396C14.1066 6.7257 14.0764 6.66898 14.0339 6.66898C13.9754 6.66898 13.8868 6.60694 13.8017 6.50589C13.7095 6.39422 13.4596 6.20631 13.1547 6.01664C12.9242 5.87483 12.3818 5.56816 12.1779 5.46534C12.1177 5.43521 12.0716 5.40153 12.0769 5.39444C12.0804 5.38557 12.2293 5.27744 12.4048 5.15513C12.5785 5.03104 12.7842 4.88214 12.8604 4.82187C13.0093 4.70487 13.3089 4.41947 13.3638 4.34502C13.3957 4.29893 13.3957 4.29362 13.3674 4.2298C13.3443 4.17485 13.3355 4.07912 13.3248 3.77068C13.3124 3.35588 13.3124 3.35233 13.16 2.6805C13.0412 2.15933 13.0359 2.11856 13.0341 1.66476L13.0306 1.24464L12.9703 1.18083C12.9366 1.14714 12.8693 1.08687 12.8196 1.04965C12.731 0.980515 12.7292 0.978742 12.474 0.952152C12.3339 0.937971 11.967 0.884791 11.6603 0.836929C11.3536 0.787295 11.0062 0.735887 10.8892 0.719934C10.6339 0.688026 9.98692 0.673844 9.72811 0.695116ZM8.81519 4.52938C8.85064 4.61447 8.88432 4.87859 8.86128 4.90164C8.85064 4.91227 8.84178 4.89809 8.83469 4.85909C8.81519 4.72969 8.78683 4.5666 8.77619 4.51874C8.76378 4.45315 8.78506 4.45847 8.81519 4.52938ZM8.90205 5.20122C8.90914 5.24376 8.92155 5.36076 8.93041 5.46357C8.957 5.7277 8.99246 5.84824 9.06159 5.89255C9.09173 5.91028 9.13781 5.92978 9.16618 5.93687C9.19277 5.94219 9.21404 5.94928 9.21404 5.9546C9.21404 5.98473 9.15377 6.08932 9.10059 6.15314C9.06336 6.19745 9.01905 6.26127 9.00132 6.29672L8.96764 6.36231L9.11654 6.86574C9.19808 7.14228 9.2619 7.37095 9.25836 7.3745C9.25304 7.38159 9.00309 6.62289 8.94814 6.4279C8.92864 6.36408 8.93041 6.34813 8.96409 6.28077C8.996 6.21872 8.99955 6.19745 8.98359 6.14073C8.97473 6.10527 8.96587 6.04323 8.96587 6.00423C8.96587 5.96523 8.94637 5.8181 8.92155 5.67629C8.8666 5.35721 8.8471 5.12677 8.87369 5.12677C8.88432 5.12677 8.89673 5.16045 8.90205 5.20122Z" fill="#FAF9F9"/>
<path d="M14.7095 8.06733C14.7095 8.09569 14.7219 8.15242 14.7361 8.19319C14.7502 8.23573 14.7644 8.29601 14.768 8.32969C14.7697 8.36159 14.7768 8.38818 14.7822 8.38818C14.807 8.38818 14.8087 8.31905 14.7857 8.23751C14.7733 8.18787 14.7573 8.11874 14.7502 8.08151C14.7378 8.00352 14.7095 7.99288 14.7095 8.06733Z" fill="#FAF9F9"/>
</svg>
